<?xml version="1.0" standalone="no"?>
<!DOCTYPE svg PUBLIC "-//W3C//DTD SVG 20010904//EN"
 "http://www.w3.org/TR/2001/REC-SVG-20010904/DTD/svg10.dtd">
<svg version="1.0" xmlns="http://www.w3.org/2000/svg"
 width="248.000000pt" height="248.000000pt" viewBox="0 0 248.000000 248.000000"
 preserveAspectRatio="xMidYMid meet">
<metadata>
Created by potrace 1.11, written by Peter Selinger 2001-2013
</metadata>
<g transform="translate(0.000000,248.000000) scale(0.100000,-0.100000)"
fill="#000000" stroke="none">
<path d="M1716 2084 c-202 -33 -380 -96 -676 -237 -83 -39 -204 -78 -290 -93
-14 -3 -38 -9 -55 -14 -57 -18 -206 -32 -273 -26 -104 8 -125 15 -181 57 l-51
39 5 -28 c2 -15 7 -65 10 -112 4 -46 11 -107 16 -134 5 -27 9 -50 9 -51 0 -2
-26 6 -58 18 -64 23 -120 55 -153 89 -12 13 -20 16 -17 8 3 -8 20 -62 38 -120
56 -180 148 -379 236 -510 40 -60 64 -90 129 -163 14 -15 25 -29 25 -32 0 -3
0 -9 0 -14 0 -9 108 -88 225 -165 97 -63 268 -137 352 -152 15 -3 44 -9 63
-14 19 -5 55 -12 79 -15 47 -6 77 -10 160 -25 71 -13 128 -13 133 0 2 6 23 13
48 15 43 5 104 15 125 21 11 3 48 11 83 18 13 3 39 15 58 26 19 12 34 19 34
15 0 -10 200 96 275 146 169 114 280 264 321 434 1 6 9 26 18 46 9 22 14 55
11 86 -2 37 5 73 25 134 27 78 29 93 26 214 -1 90 -7 142 -18 170 -25 63 -31
79 -32 90 -4 41 -121 170 -192 211 -100 59 -169 76 -304 79 -69 1 -161 -4
-204 -11z"/>
</g>
</svg>
